<svg xmlns="http://www.w3.org/2000/svg" version="1.1" xmlns:xlink="http://www.w3.org/1999/xlink" xmlns:svgjs="http://svgjs.dev/svgjs" width="100%" height="100%" viewBox="0 0 1000 600"><rect width="1000" height="600" x="0" y="0" fill="b"/><g><circle r="166.66666666666666" cx="339.78087870279944" cy="362.003114344192" fill="#efefef" transform="matrix(0.7220666336816349,0,0,0.7220666336816349,0,38.609630127374174)"/><path d="M320.62647782338917 437.00312750723833L299.9451638266723 437.00312750723833L299.9451638266723 287.00312935268744L379.61660005671484 287.00312935268744L377.2279687617724 303.54213338222576L320.62647782338917 303.54213338222576L320.62647782338917 354.70117326884133L369.6085372892978 354.70117326884133L369.6085372892978 371.02852642414416L320.62647782338917 371.02852642414416L320.62647782338917 437.00312750723833Z " fill="#bbbbbb" transform="matrix(0.7220666336816349,0,0,0.7220666336816349,0,38.609630127374174)"/><path d="M639.7896522625507 306.70673971509905Q631.8187649186149 306.70673971509905 628.4252188216918 310.20551204758567Q625.0053661658777 313.7042843800724 625.0053661658777 321.0964274284088L625.0053661658777 321.0964274284088L625.0053661658777 334.93367740501014L649.2600134632664 334.93367740501014L647.3659412231233 348.37632899824837L625.0053661658777 348.37632899824837L625.0053661658777 434.740761836998L607.5904241801171 434.740761836998L607.5904241801171 348.37632899824837L589.7808838109933 348.37632899824837L589.7808838109933 334.93367740501014L607.5904241801171 334.93367740501014L607.5904241801171 321.280573340645Q607.5904241801171 308.416666043006 615.8243771129615 300.5510049346338Q624.0583300458062 292.6853438262615 638.8426161424791 292.6853438262615L638.8426161424791 292.6853438262615Q645.6560148952162 292.6853438262615 651.048859467846 293.9217520941328Q656.4417040404759 295.15816036200397 662.7026650565047 297.7888162510917L662.7026650565047 297.7888162510917L657.2045942483113 310.49488419538534Q648.6812691676671 306.70673971509905 639.7896522625507 306.70673971509905L639.7896522625507 306.70673971509905ZM736.5714824220876 411.4331506596808Q736.5714824220876 417.5099657634735 738.6497005744669 420.42999380036076Q740.7279187268462 423.376328396139 744.9106615904956 424.90210881180997L744.9106615904956 424.90210881180997L740.9383711979732 437.00312590161343Q733.1516297662736 436.0560897815418 728.4164491659157 432.66254368461864Q723.6812685655577 429.24269102880464 721.4189045009424 422.0610004515952L721.4189045009424 422.0610004515952Q711.3697990046272 437.00312590161343 691.6924929542512 437.00312590161343L691.6924929542512 437.00312590161343Q676.9082068575783 437.00312590161343 668.3848817769341 428.69025329209626Q659.8615566962899 420.35107412368814 659.8615566962899 406.9084225304499L659.8615566962899 406.9084225304499Q659.8615566962899 390.9929544014693 671.3312163727123 382.4696293208251Q682.7745694902438 373.9463042401809 703.7935100440546 373.9463042401809L703.7935100440546 373.9463042401809L719.156540436327 373.9463042401809L719.156540436327 366.5541611918445Q719.156540436327 355.95261795882095 714.0267614526059 351.40158327069923Q708.9232890277757 346.8505485825775 698.3217457947522 346.8505485825775L698.3217457947522 346.8505485825775Q687.3256041783656 346.8505485825775 671.410136049385 352.16447347853466L671.410136049385 352.16447347853466L667.0695538323902 339.458405534241Q685.6156778504586 332.64500678150387 701.5311459794392 332.64500678150387L701.5311459794392 332.64500678150387Q719.156540436327 332.64500678150387 727.8640114292073 341.27355809771154Q736.5714824220876 349.8758028550284 736.5714824220876 365.7912709840091L736.5714824220876 365.7912709840091L736.5714824220876 411.4331506596808ZM695.6647833467737 423.95507269173834Q710.6332153556828 423.95507269173834 719.156540436327 408.4078963872299L719.156540436327 408.4078963872299L719.156540436327 385.494883593276L706.0821806675609 385.494883593276Q678.4339872732492 385.494883593276 678.4339872732492 405.9613864103784L678.4339872732492 405.9613864103784Q678.4339872732492 414.8530033154949 682.7745694902438 419.4040380036166Q687.1414582661295 423.95507269173834 695.6647833467737 423.95507269173834L695.6647833467737 423.95507269173834ZM799.4441581712839 332.64500678150387Q809.6774095798351 332.64500678150387 817.832442836007 335.48611514171864Q825.961169533288 338.3272235019333 833.3533125816244 344.00944022236274L833.3533125816244 344.00944022236274L825.961169533288 355.00558183874944Q819.1477707805508 350.6386930628638 812.9920360000855 348.5604749104846Q806.8363012196203 346.4822567581052 800.0229024668831 346.4822567581052L800.0229024668831 346.4822567581052Q791.4995773862389 346.4822567581052 786.5802508736449 349.98102909059185Q781.6609243610509 353.4798014230786 781.6609243610509 359.55661652687115L781.6609243610509 359.55661652687115Q781.6609243610509 365.6071250717729 786.2908787258453 369.0269777275869Q790.9208330906397 372.42052382451004 803.0481567393341 375.65623056808795L803.0481567393341 375.65623056808795Q819.7265150761501 379.81266687284653 827.9604680089947 387.0206640089468Q836.1944209418392 394.2023545861563 836.1944209418392 406.697970059323L836.1944209418392 406.697970059323Q836.1944209418392 421.48225615599586 824.7510678243076 429.24269102880464Q813.2814081478853 437.00312590161343 796.8135022821962 437.00312590161343L796.8135022821962 437.00312590161343Q774.0846354004783 437.00312590161343 759.1162033915692 423.95507269173834L759.1162033915692 423.95507269173834L768.4024186800489 413.32722289982394Q781.0821800654516 423.0080365716667 796.418903898833 423.0080365716667L796.418903898833 423.0080365716667Q806.2838634829119 423.0080365716667 812.044999880014 418.93051994358086Q817.832442836007 414.8530033154949 817.832442836007 407.85545865052154L817.832442836007 407.85545865052154Q817.832442836007 402.7256796668005 815.7542246836276 399.59519915878616Q813.6496999723574 396.49102520966267 808.5462275475273 394.12343490948365Q803.4427551226971 391.75584460930475 793.5777955386183 389.0988821613262L793.5777955386183 389.0988821613262Q777.6623274096377 384.91613929767675 770.5595565091008 377.9185946327034Q763.456785608564 370.92104996773 763.456785608564 360.10905426357954L763.456785608564 360.10905426357954Q763.456785608564 352.34861939077086 768.1130465322492 346.00873869806946Q772.7430008970435 339.66885800536807 780.9769538298881 336.1437791139905Q789.2372133216236 332.64500678150387 799.4441581712839 332.64500678150387L799.4441581712839 332.64500678150387ZM907.8008742428067 332.64500678150387Q921.4276717482811 332.64500678150387 929.1091869444172 340.8000400376758Q936.7643955816624 348.92876673495675 936.7643955816624 363.1343085360304L936.7643955816624 363.1343085360304L936.7643955816624 434.740761836998L919.3494535959018 434.740761836998L919.3494535959018 365.6071250717729Q919.3494535959018 355.00558183874944 915.2719369678158 350.6386930628638Q911.1944203397298 346.29811084586913 903.4339854669211 346.29811084586913L903.4339854669211 346.29811084586913Q895.6735505941123 346.29811084586913 889.6230420492105 350.8228389750999Q883.546226945418 355.37387366322173 878.2586086083517 363.71305283162974L878.2586086083517 363.71305283162974L878.2586086083517 434.740761836998L860.8173600637002 434.740761836998L860.8173600637002 294.9477078908769L878.2586086083517 293.0536356507338L878.2586086083517 348.74462082272066Q889.9913338736828 332.64500678150387 907.8008742428067 332.64500678150387L907.8008742428067 332.64500678150387ZM971.8047320243107 334.93367740501014L989.2459805689622 334.93367740501014L989.2459805689622 434.740761836998L971.8047320243107 434.740761836998L971.8047320243107 334.93367740501014ZM980.3280571049548 287.00312710583205Q985.8261279131483 287.00312710583205 989.2459805689622 290.4229797616461Q992.6395266658855 293.8165258585692 992.6395266658855 298.94630484229026L992.6395266658855 298.94630484229026Q992.6395266658855 304.0497772671205 989.2459805689622 307.36440368737095Q985.8261279131483 310.6790301076215 980.3280571049548 310.6790301076215L980.3280571049548 310.6790301076215Q975.0404387678885 310.6790301076215 971.6205861120745 307.36440368737095Q968.2270400151514 304.0497772671205 968.2270400151514 298.94630484229026L968.2270400151514 298.94630484229026Q968.2270400151514 293.8165258585692 971.6205861120745 290.4229797616461Q975.0404387678885 287.00312710583205 980.3280571049548 287.00312710583205L980.3280571049548 287.00312710583205ZM1062.7201995511818 332.64500678150387Q1083.7654466638837 332.64500678150387 1095.3929456936512 346.6664026703414Q1107.0467512823102 360.6877985591789 1107.0467512823102 384.73199338544055L1107.0467512823102 384.73199338544055Q1107.0467512823102 400.27916968994896 1101.759132945244 412.1171211908436Q1096.4452080492865 423.95507269173834 1086.3961025529716 430.4790992966758Q1076.3733036155472 437.00312590161343 1062.5360536389458 437.00312590161343L1062.5360536389458 437.00312590161343Q1041.517113085135 437.00312590161343 1029.7843878198037 423.0080365716667Q1018.0253559955818 408.98664068282926 1018.0253559955818 384.91613929767675L1018.0253559955818 384.91613929767675Q1018.0253559955818 369.3952695520592 1023.339280891539 357.55731805116454Q1028.6268992286055 345.7193665502698 1038.6760047249204 339.1953399453323Q1048.7251102212354 332.64500678150387 1062.7201995511818 332.64500678150387L1062.7201995511818 332.64500678150387ZM1062.7201995511818 346.6664026703414Q1036.7819324847774 346.6664026703414 1036.7819324847774 384.91613929767675L1036.7819324847774 384.91613929767675Q1036.7819324847774 423.0080365716667 1062.5360536389458 423.0080365716667L1062.5360536389458 423.0080365716667Q1088.2901747931146 423.0080365716667 1088.2901747931146 384.73199338544055L1088.2901747931146 384.73199338544055Q1088.2901747931146 346.6664026703414 1062.7201995511818 346.6664026703414L1062.7201995511818 346.6664026703414ZM1182.809640888036 332.64500678150387Q1196.4627449524014 332.64500678150387 1204.1179535896463 340.8000400376758Q1211.7994687857827 348.92876673495675 1211.7994687857827 363.1343085360304L1211.7994687857827 363.1343085360304L1211.7994687857827 434.740761836998L1194.3582202411312 434.740761836998L1194.3582202411312 365.6071250717729Q1194.3582202411312 355.00558183874944 1190.3859298486086 350.6386930628638Q1186.413639456086 346.29811084586913 1178.6532045832773 346.29811084586913L1178.6532045832773 346.29811084586913Q1170.6823172393415 346.29811084586913 1164.6318086944398 350.8228389750999Q1158.581300149538 355.37387366322173 1153.2673752535811 363.89719874386583L1153.2673752535811 363.89719874386583L1153.2673752535811 434.740761836998L1135.8524332678203 434.740761836998L1135.8524332678203 334.93367740501014L1150.7945587178388 334.93367740501014L1152.3203391335096 349.6916569427923Q1157.6342640294665 341.7470761577473 1165.473618578948 337.1960414696256Q1173.3392796873204 332.64500678150387 1182.809640888036 332.64500678150387L1182.809640888036 332.64500678150387Z " fill="#FFE6" transform="matrix(0.7220666336816349,0,0,0.7220666336816349,0,38.609630127374174)"/></g></svg>